<svg xmlns="http://www.w3.org/2000/svg" viewBox="0 0 575 80" role="img" aria-label="Prompt Dept."><title>Prompt Dept.</title><g transform="translate(0 5) scale(.74)"><path fill="#eeeae0" d="M40 0L50 0L50 10L60 10L60 20L60 30L50 30L50 40L40 40L30 40L20 40L20 50L20 60L20 70L10 70L0 70L0 60L0 50L0 40L0 30L0 20L0 10L0 0L10 0L20 0L30 0L40 0ZM140 50L140 40L140 30L140 20L130 20L130 10L120 10L110 10L110 20L110 30L110 40L110 50L110 60L120 60L130 60L130 50L140 50ZM140 10L150 10L150 20L160 20L160 30L160 40L160 50L150 50L150 60L140 60L140 70L130 70L120 70L110 70L100 70L90 70L90 60L90 50L90 40L90 30L90 20L90 10L90 0L100 0L110 0L120 0L130 0L140 0L140 10ZM130 80L140 80L150 80L160 80L160 90L150 90L140 90L130 90L120 90L120 80L130 80ZM40 30L40 20L40 10L30 10L20 10L20 20L20 30L30 30L40 30Z"/></g><g aria-label="PROMPT DEPT." fill="#eeeae0" transform="translate(138.000 66.430) scale(0.071229 -0.071229)"><path d="M458 481Q458 418 434.5 370.5Q411 323 368.0 297.0Q325 271 269 271H204Q199 271 199 266V12Q199 7 195.5 3.5Q192 0 187 0H45Q40 0 36.5 3.5Q33 7 33 12V688Q33 693 36.5 696.5Q40 700 45 700H261Q319 700 363.5 672.5Q408 645 433.0 595.0Q458 545 458 481ZM292 477Q292 516 275.5 537.0Q259 558 232 558H204Q199 558 199 553V404Q199 399 204 399H232Q259 399 275.5 419.5Q292 440 292 477Z" transform="translate(0.000 0)"/><path d="M294 10 226 275Q225 279 221 279H206Q201 279 201 274V12Q201 7 197.5 3.5Q194 0 189 0H47Q42 0 38.5 3.5Q35 7 35 12V688Q35 693 38.5 696.5Q42 700 47 700H262Q320 700 365.0 672.5Q410 645 434.5 595.5Q459 546 459 483Q459 427 438.5 382.5Q418 338 381 311Q379 310 378.0 308.5Q377 307 378 305L464 14L465 10Q465 0 454 0H308Q297 0 294 10ZM201 553V411Q201 406 206 406H234Q261 406 277.0 426.0Q293 446 293 481Q293 518 277.0 538.0Q261 558 234 558H206Q201 558 201 553Z" transform="translate(480.000 0)"/><path d="M27 199V501Q27 595 84.5 651.5Q142 708 239 708Q335 708 393.5 651.5Q452 595 452 501V199Q452 104 393.5 48.0Q335 -8 239 -8Q142 -8 84.5 48.0Q27 104 27 199ZM286 192V508Q286 535 273.5 550.5Q261 566 239 566Q217 566 205.0 550.5Q193 535 193 508V192Q193 165 205.0 149.5Q217 134 239 134Q261 134 273.5 149.5Q286 165 286 192Z" transform="translate(967.000 0)"/><path d="M376 700H515Q520 700 523.5 696.5Q527 693 527 688V12Q527 7 523.5 3.5Q520 0 515 0H373Q368 0 364.5 3.5Q361 7 361 12V441Q361 445 359.0 445.5Q357 446 355 443L285 321Q281 313 279 313Q277 313 272 321L202 443Q200 446 198.0 446.0Q196 446 196 442V12Q196 7 192.5 3.5Q189 0 184 0H42Q37 0 33.5 3.5Q30 7 30 12V688Q30 693 33.5 696.5Q37 700 42 700H182Q192 700 197 692L277 547Q280 543 283 547L361 692Q365 700 376 700Z" transform="translate(1452.000 0)"/><path d="M458 481Q458 418 434.5 370.5Q411 323 368.0 297.0Q325 271 269 271H204Q199 271 199 266V12Q199 7 195.5 3.5Q192 0 187 0H45Q40 0 36.5 3.5Q33 7 33 12V688Q33 693 36.5 696.5Q40 700 45 700H261Q319 700 363.5 672.5Q408 645 433.0 595.0Q458 545 458 481ZM292 477Q292 516 275.5 537.0Q259 558 232 558H204Q199 558 199 553V404Q199 399 204 399H232Q259 399 275.5 419.5Q292 440 292 477Z" transform="translate(2016.000 0)"/><path d="M464 688V570Q464 565 460.5 561.5Q457 558 452 558H328Q323 558 323 553V12Q323 7 319.5 3.5Q316 0 311 0H169Q164 0 160.5 3.5Q157 7 157 12V553Q157 558 152 558H33Q28 558 24.5 561.5Q21 565 21 570V688Q21 693 24.5 696.5Q28 700 33 700H452Q457 700 460.5 696.5Q464 693 464 688Z" transform="translate(2496.000 0)"/><path d="M35 12V688Q35 693 38.5 696.5Q42 700 47 700H238Q334 700 392.0 646.0Q450 592 450 503V197Q450 108 392.0 54.0Q334 0 238 0H47Q42 0 38.5 3.5Q35 7 35 12ZM206 142 234 143Q255 144 269.0 161.5Q283 179 284 208V492Q284 522 270.0 540.0Q256 558 233 558H206Q201 558 201 553V147Q201 142 206 142Z" transform="translate(3193.000 0)"/><path d="M407 558H206Q201 558 201 553V427Q201 422 206 422H316Q321 422 324.5 418.5Q328 415 328 410V291Q328 286 324.5 282.5Q321 279 316 279H206Q201 279 201 274V147Q201 142 206 142H407Q412 142 415.5 138.5Q419 135 419 130V12Q419 7 415.5 3.5Q412 0 407 0H47Q42 0 38.5 3.5Q35 7 35 12V688Q35 693 38.5 696.5Q42 700 47 700H407Q412 700 415.5 696.5Q419 693 419 688V570Q419 565 415.5 561.5Q412 558 407 558Z" transform="translate(3679.000 0)"/><path d="M458 481Q458 418 434.5 370.5Q411 323 368.0 297.0Q325 271 269 271H204Q199 271 199 266V12Q199 7 195.5 3.5Q192 0 187 0H45Q40 0 36.5 3.5Q33 7 33 12V688Q33 693 36.5 696.5Q40 700 45 700H261Q319 700 363.5 672.5Q408 645 433.0 595.0Q458 545 458 481ZM292 477Q292 516 275.5 537.0Q259 558 232 558H204Q199 558 199 553V404Q199 399 204 399H232Q259 399 275.5 419.5Q292 440 292 477Z" transform="translate(4126.000 0)"/><path d="M464 688V570Q464 565 460.5 561.5Q457 558 452 558H328Q323 558 323 553V12Q323 7 319.5 3.5Q316 0 311 0H169Q164 0 160.5 3.5Q157 7 157 12V553Q157 558 152 558H33Q28 558 24.5 561.5Q21 565 21 570V688Q21 693 24.5 696.5Q28 700 33 700H452Q457 700 460.5 696.5Q464 693 464 688Z" transform="translate(4606.000 0)"/><path d="M31 81Q31 120 55.5 144.0Q80 168 118 168Q156 168 180.0 144.0Q204 120 204 81Q204 43 179.5 18.5Q155 -6 118 -6Q80 -6 55.5 18.5Q31 43 31 81Z" transform="translate(5097.000 0)"/></g></svg>
